<mxfile host="app.diagrams.net" modified="2021-11-02T08:45:24.554Z" agent="5.0 (Macintosh)" etag="RBeOJWMvdKR_EeXhvCuc" version="15.6.5" type="github">
  <diagram id="MA8yDwp3Q8mf_9v8Q9SB" name="Page-1">
    <mxGraphModel dx="1054" dy="968" grid="1" gridSize="10" guides="1" tooltips="1" connect="1" arrows="1" fold="1" page="1" pageScale="1" pageWidth="827" pageHeight="1169" math="0" shadow="0">
      <root>
        <mxCell id="0" />
        <mxCell id="1" parent="0" />
        <mxCell id="7RPd2S4GOCwd0yXck4MM-1" style="edgeStyle=orthogonalEdgeStyle;rounded=0;orthogonalLoop=1;jettySize=auto;html=1;fontColor=default;" edge="1" parent="1" source="efFBTPCreclp-8QlBprk-1" target="efFBTPCreclp-8QlBprk-8">
          <mxGeometry relative="1" as="geometry" />
        </mxCell>
        <mxCell id="efFBTPCreclp-8QlBprk-1" value="3 input views Add check in screen" style="rounded=0;whiteSpace=wrap;html=1;fillColor=default;strokeColor=default;fontColor=default;labelBackgroundColor=default;" parent="1" vertex="1">
          <mxGeometry x="170" y="120" width="180" height="80" as="geometry" />
        </mxCell>
        <mxCell id="efFBTPCreclp-8QlBprk-3" style="edgeStyle=orthogonalEdgeStyle;rounded=0;orthogonalLoop=1;jettySize=auto;html=1;entryX=0.5;entryY=1;entryDx=0;entryDy=0;fontColor=default;strokeColor=default;labelBackgroundColor=default;" parent="1" source="efFBTPCreclp-8QlBprk-2" target="efFBTPCreclp-8QlBprk-1" edge="1">
          <mxGeometry relative="1" as="geometry" />
        </mxCell>
        <mxCell id="efFBTPCreclp-8QlBprk-6" style="edgeStyle=orthogonalEdgeStyle;rounded=0;orthogonalLoop=1;jettySize=auto;html=1;entryX=0.5;entryY=0;entryDx=0;entryDy=0;fontColor=default;" parent="1" source="efFBTPCreclp-8QlBprk-2" target="efFBTPCreclp-8QlBprk-4" edge="1">
          <mxGeometry relative="1" as="geometry" />
        </mxCell>
        <mxCell id="efFBTPCreclp-8QlBprk-2" value="Can be checked" style="rounded=0;whiteSpace=wrap;html=1;fontColor=default;strokeColor=default;fillColor=default;" parent="1" vertex="1">
          <mxGeometry x="190" y="220" width="140" height="30" as="geometry" />
        </mxCell>
        <mxCell id="efFBTPCreclp-8QlBprk-4" value="Drop down with request" style="rounded=0;whiteSpace=wrap;html=1;fontColor=default;strokeColor=default;fillColor=default;" parent="1" vertex="1">
          <mxGeometry x="190" y="280" width="140" height="70" as="geometry" />
        </mxCell>
        <mxCell id="efFBTPCreclp-8QlBprk-7" value="Manual goals" style="text;html=1;strokeColor=none;fillColor=none;align=center;verticalAlign=middle;whiteSpace=wrap;rounded=0;fontColor=default;" parent="1" vertex="1">
          <mxGeometry x="330" y="20" width="60" height="30" as="geometry" />
        </mxCell>
        <mxCell id="efFBTPCreclp-8QlBprk-8" value="&lt;div&gt;Show that goals when we open add check in screen&lt;/div&gt;" style="rounded=0;whiteSpace=wrap;html=1;labelBackgroundColor=default;fontColor=default;strokeColor=default;fillColor=default;" parent="1" vertex="1">
          <mxGeometry x="390" y="205" width="146" height="60" as="geometry" />
        </mxCell>
        <mxCell id="efFBTPCreclp-8QlBprk-9" value="&lt;div&gt;1. Add list of that goals to the fetch_meal_data action&lt;/div&gt;" style="text;html=1;strokeColor=none;fillColor=none;align=left;verticalAlign=middle;whiteSpace=wrap;rounded=0;labelBackgroundColor=default;fontColor=default;" parent="1" vertex="1">
          <mxGeometry x="10" y="570" width="650" height="30" as="geometry" />
        </mxCell>
      </root>
    </mxGraphModel>
  </diagram>
</mxfile>
